#!OML:ASF F:\VICON\USERDATA\INSTALL\rory3\rory3.ASF
:FULLY-SPECIFIED
:DEGREES
1721
root -3.12982 17.1247 2.43974 0.769083 6.19243 -1.76025
lowerback 6.74117 -0.119493 -0.362726
upperback 3.61748 -0.201449 -4.37362
thorax -0.0593449 -0.0627057 -4.30354
lowerneck -24.3519 -13.5879 -17.6762
upperneck 15.6761 -16.0027 14.6901
head 11.8081 -6.77774 5.22547
rclavicle 9.54166e-015 -4.13472e-014
rhumerus 39.2517 44.1872 14.96
rradius 73.6988
rwrist 61.1814
rhand -67.2374 20.9405
rfingers 7.12502
rthumb -39.0107 -4.57644
lclavicle 9.54166e-015 -4.13472e-014
lhumerus -34.4578 11.0517 65.027
lradius 54.7526
lwrist -0.554558
lhand -24.1632 24.3326
lfingers 7.12502
lthumb 2.31972 54.2997
rfemur -19.1381 -7.20428 25.1791
rtibia 46.2571
rfoot -25.5057 -3.61234
rtoes 6.75723
lfemur -11.5601 -10.1494 -0.0697186
ltibia 25.286
lfoot -10.2858 9.63071
ltoes -28.64
1722
root -3.14124 17.1222 2.43033 0.77736 6.10838 -1.8505
lowerback 6.97437 -0.178867 -0.23496
upperback 3.64922 -0.277951 -4.30554
thorax -0.161654 -0.100638 -4.30006
lowerneck -24.5046 -13.6036 -17.6213
upperneck 15.4403 -15.9608 14.6117
head 11.7236 -6.759 5.18891
rclavicle 3.97569e-016 -2.22639e-014
rhumerus 39.5139 44.4789 15.6784
rradius 74.1988
rwrist 61.7076
rhand -68.0622 23.7222
rfingers 7.12502
rthumb -39.7877 -1.56757
lclavicle 3.97569e-016 -2.22639e-014
lhumerus -34.6171 11.2066 64.9316
lradius 54.8718
lwrist -0.542353
lhand -24.3705 23.857
lfingers 7.12502
lthumb 2.11954 53.8262
rfemur -19.2283 -7.23722 25.2845
rtibia 46.3475
rfoot -25.5781 -3.27635
rtoes 8.33002
lfemur -11.5945 -10.019 0.0919285
ltibia 25.2904
lfoot -10.2847 9.54392
ltoes -28.6169
1723
root -3.14481 17.1211 2.43146 0.767967 5.82207 -1.86781
lowerback 7.21423 -0.198959 0.0488112
upperback 3.60484 -0.296293 -4.37433
thorax -0.34281 -0.108172 -4.53263
lowerneck -24.6168 -13.602 -17.6808
upperneck 15.3565 -15.9362 14.7307
head 11.7262 -6.73384 5.24435
rclavicle 7.95139e-015 1.11319e-014
rhumerus 39.3634 44.4769 15.7657
rradius 74.7335
rwrist 61.8189
rhand -68.9116 30.7072
rfingers 7.12502
rthumb -40.5867 5.66082
lclavicle 7.95139e-015 1.11319e-014
lhumerus -34.9535 11.2044 64.6688
lradius 54.9907
lwrist -0.586647
lhand -24.429 23.9594
lfingers 7.12502
lthumb 2.06303 53.9291
rfemur -19.2408 -7.2264 25.2721
rtibia 46.413
rfoot -25.5583 -2.93361
rtoes 8.91779
lfemur -11.4422 -10.0287 0.0953488
ltibia 25.3133
lfoot -10.3199 9.77145
ltoes -28.3468
1724
root -3.15114 17.1187 2.42541 0.871565 5.71036 -1.81313
lowerback 7.43078 -0.338078 0.31673
upperback 3.54476 -0.473525 -4.52974
thorax -0.541353 -0.195864 -4.83509
lowerneck -24.7388 -13.5268 -17.6751
upperneck 15.1445 -15.8495 14.9915
head 11.6826 -6.66314 5.35671
rclavicle -2.10712e-014 -1.59028e-015
rhumerus 39.036 44.0785 15.4606
rradius 75.3959
rwrist 61.681
rhand -69.4493 33.8019
rfingers 7.12502
rthumb -41.092 8.9148
lclavicle -2.10712e-014 -1.59028e-015
lhumerus -35.3576 11.2066 64.2166
lradius 55.1472
lwrist -0.710765
lhand -24.2705 24.4576
lfingers 7.12502
lthumb 2.21615 54.4258
rfemur -19.4021 -7.43755 25.2299
rtibia 46.4528
rfoot -25.39 -2.72157
rtoes 8.46477
lfemur -11.5189 -9.99988 0.0694942
ltibia 25.3301
lfoot -10.3673 9.81865
ltoes -28.0535
1725
root -3.16345 17.1136 2.41311 1.09762 5.80903 -1.78111
lowerback 7.47985 -0.528615 0.434353
upperback 3.53814 -0.721243 -4.57175
thorax -0.598479 -0.319346 -4.92644
lowerneck -24.885 -13.4685 -17.6018
upperneck 14.7792 -15.7459 15.1104
head 11.5597 -6.59675 5.40544
rclavicle -8.34896e-015 1.59028e-015
rhumerus 38.4375 43.3243 15.0251
rradius 76.2206
rwrist 61.4418
rhand -69.2645 29.1146
rfingers 7.12502
rthumb -40.9184 4.17236
lclavicle -8.34896e-015 1.59028e-015
lhumerus -35.6746 11.2635 63.9175
lradius 55.3289
lwrist -0.751957
lhand -24.2357 24.8448
lfingers 7.12502
lthumb 2.24973 54.8127
rfemur -19.7313 -7.77392 25.2803
rtibia 46.495
rfoot -25.2779 -2.59937
rtoes 7.61998
lfemur -11.8638 -9.85895 0.143027
ltibia 25.344
lfoot -10.2979 9.63767
ltoes -28.142
1726
root -3.16983 17.1137 2.41394 1.27041 5.65302 -1.79294
lowerback 7.47171 -0.578896 0.579732
upperback 3.48754 -0.780434 -4.54587
thorax -0.653008 -0.349371 -4.97719
lowerneck -24.8371 -13.47 -17.5749
upperneck 14.4204 -15.7101 15.0898
head 11.4058 -6.58771 5.398
rclavicle -6.36111e-015 3.33958e-014
rhumerus 37.4608 42.3539 14.3424
rradius 76.9953
rwrist 61.0219
rhand -69.2157 25.7989
rfingers 7.12502
rthumb -40.8725 0.842117
lclavicle -6.36111e-015 3.33958e-014
lhumerus -36.1126 11.2205 63.7985
lradius 55.4593
lwrist -0.724728
lhand -24.1737 24.4357
lfingers 7.12502
lthumb 2.30964 54.403
rfemur -19.956 -7.85257 25.3374
rtibia 46.528
rfoot -25.2082 -2.45263
rtoes 7.38412
lfemur -11.9702 -9.83754 0.202185
ltibia 25.3628
lfoot -10.3018 9.78963
ltoes -27.9581
1727
root -3.17138 17.1144 2.42001 1.41175 5.27367 -1.72179
lowerback 7.4165 -0.574858 0.683023
upperback 3.512 -0.767213 -4.56486
thorax -0.597216 -0.340774 -5.05762
lowerneck -24.8892 -13.5097 -17.6363
upperneck 14.0277 -15.7211 15.2531
head 11.2941 -6.58025 5.45939
rclavicle 1.19271e-015 -1.27222e-014
rhumerus 36.3926 40.7617 13.3441
rradius 77.5367
rwrist 60.458
rhand -69.4638 27.3008
rfingers 7.12502
rthumb -41.1055 2.41808
lclavicle 1.19271e-015 -1.27222e-014
lhumerus -36.4797 11.2637 63.6494
lradius 55.5435
lwrist -0.785677
lhand -24.129 24.1383
lfingers 7.12502
lthumb 2.35277 54.1051
rfemur -20.1417 -7.87722 25.2906
rtibia 46.5656
rfoot -25.0291 -2.31479
rtoes 6.00804
lfemur -11.9028 -9.85368 0.11824
ltibia 25.3688
lfoot -10.4086 10.145
ltoes -27.7877
1728
root -3.17456 17.111 2.41932 1.56061 4.92356 -1.75669
lowerback 7.39033 -0.639944 0.871917
upperback 3.54245 -0.840713 -4.56741
thorax -0.56034 -0.37504 -5.16266
lowerneck -25.0898 -13.4664 -17.5089
upperneck 13.7491 -15.6375 15.2861
head 11.2034 -6.52574 5.46237
rclavicle 3.57812e-015 4.77083e-015
rhumerus 35.5774 38.7838 12.3403
rradius 77.928
rwrist 59.7441
rhand -69.7761 23.8895
rfingers 7.12502
rthumb -41.3987 -0.898856
lclavicle 3.57812e-015 4.77083e-015
lhumerus -36.8947 11.3863 63.3949
lradius 55.632
lwrist -0.881782
lhand -23.8365 24.2932
lfingers 7.12502
lthumb 2.63528 54.2566
rfemur -20.3735 -7.91528 25.3721
rtibia 46.5909
rfoot -24.8532 -2.08036
rtoes 4.55413
lfemur -11.8928 -9.74063 0.183996
ltibia 25.3446
lfoot -10.463 10.3783
ltoes -27.7399
1729
root -3.18004 17.1089 2.41714 1.70976 4.56465 -1.71995
lowerback 7.40193 -0.684114 0.961725
upperback 3.53204 -0.894735 -4.55534
thorax -0.583755 -0.402097 -5.19682
lowerneck -25.1827 -13.4451 -17.5025
upperneck 13.4672 -15.5724 15.3646
head 11.1119 -6.48655 5.49965
rclavicle 4.37326e-015 7.95139e-015
rhumerus 34.8074 36.5712 11.3933
rradius 78.2801
rwrist 59.1863
rhand -69.7491 15.2292
rfingers 7.12502
rthumb -41.3734 -9.56732
lclavicle 4.37326e-015 7.95139e-015
lhumerus -37.3663 11.4386 63.1869
lradius 55.6431
lwrist -0.944881
lhand -23.5917 24.7086
lfingers 7.12502
lthumb 2.87164 54.669
rfemur -20.6046 -7.8922 25.3627
rtibia 46.6354
rfoot -24.6777 -1.77461
rtoes 4.32031
lfemur -11.8723 -9.57629 0.166772
ltibia 25.3133
lfoot -10.465 10.5821
ltoes -27.7796
1730
root -3.18374 17.1095 2.41612 1.90532 4.18185 -1.56969
lowerback 7.43042 -0.710397 0.994768
upperback 3.4756 -0.930948 -4.58037
thorax -0.662284 -0.422093 -5.2387
lowerneck -25.1712 -13.4197 -17.4208
upperneck 13.073 -15.5043 15.3312
head 10.9422 -6.46047 5.48574
rclavicle -2.78299e-015 2.22639e-014
rhumerus 34.0668 34.0729 10.2486
rradius 78.3943
rwrist 58.7402
rhand -69.4367 12.6497
rfingers 7.12502
rthumb -41.0801 -12.2412
lclavicle -2.78299e-015 2.22639e-014
lhumerus -37.866 11.3857 63.0177
lradius 55.5837
lwrist -0.902964
lhand -23.6751 24.6539
lfingers 7.12502
lthumb 2.79117 54.6154
rfemur -20.8847 -7.87203 25.2238
rtibia 46.7076
rfoot -24.5305 -1.4764
rtoes 4.54631
lfemur -11.8492 -9.44757 0.00600891
ltibia 25.2841
lfoot -10.5373 10.8204
ltoes -27.7409
1731
root -3.18502 17.1118 2.4133 2.06348 3.79387 -1.49324
lowerback 7.53769 -0.8007 1.1294
upperback 3.41459 -1.04673 -4.59624
thorax -0.798579 -0.482235 -5.3218
lowerneck -25.1732 -13.3568 -17.3602
upperneck 12.6966 -15.3994 15.3899
head 10.7886 -6.40867 5.51794
rclavicle 2.38542e-014 7.95139e-014
rhumerus 33.5181 31.258 8.98951
rradius 78.3209
rwrist 58.341
rhand -69.2538 13.1062
rfingers 7.12502
rthumb -40.9083 -11.8392
lclavicle 2.38542e-014 7.95139e-014
lhumerus -38.2955 11.5181 62.7538
lradius 55.288
lwrist -0.925762
lhand -23.6165 24.3559
lfingers 7.12502
lthumb 2.84772 54.3166
rfemur -21.1409 -7.82736 25.157
rtibia 46.8203
rfoot -24.4242 -1.22389
rtoes 5.15876
lfemur -11.7589 -9.32924 -0.0694299
ltibia 25.1984
lfoot -10.6157 10.9961
ltoes -27.5069
1732
root -3.18778 17.113 2.40693 2.31886 3.36737 -1.47831
lowerback 7.63795 -0.875814 1.30435
upperback 3.26311 -1.14181 -4.5889
thorax -1.02346 -0.535075 -5.40436
lowerneck -25.0831 -13.2751 -17.2322
upperneck 12.3571 -15.2908 15.3507
head 10.6169 -6.36624 5.50731
rclavicle -3.97569e-016 -1.43125e-014
rhumerus 33.212 28.2683 7.82269
rradius 77.9076
rwrist 57.914
rhand -69.4648 24.8426
rfingers 7.12502
rthumb -41.1065 -0.0398057
lclavicle -3.97569e-016 -1.43125e-014
lhumerus -38.74 11.5346 62.4865
lradius 54.8985
lwrist -0.708105
lhand -23.4784 24.1915
lfingers 7.12502
lthumb 2.98106 54.1504
rfemur -21.5107 -7.68595 25.1621
rtibia 46.9477
rfoot -24.3182 -0.790451
rtoes 6.3488
lfemur -11.7782 -9.18503 -0.0462143
ltibia 25.0758
lfoot -10.6406 11.2904
ltoes -27.474
1733
root -3.19049 17.112 2.399 2.5552 2.89228 -1.38927
lowerback 7.78 -0.908562 1.39218
upperback 3.10728 -1.18625 -4.57142
thorax -1.26943 -0.563949 -5.43017
lowerneck -24.9006 -13.2133 -17.1813
upperneck 11.936 -15.1992 15.3557
head 10.4155 -6.33616 5.52274
rclavicle -1.66979e-014 -1.59028e-014
rhumerus 33.0514 25.078 6.73361
rradius 77.3992
rwrist 57.5493
rhand -70.5565 22.2368
rfingers 7.12502
rthumb -42.1305 -2.30943
lclavicle -1.66979e-014 -1.59028e-014
lhumerus -39.2804 11.6387 62.2921
lradius 54.5853
lwrist -0.706694
lhand -23.0078 24.4535
lfingers 7.12502
lthumb 3.43556 54.4056
rfemur -21.9009 -7.64373 25.0875
rtibia 47.0733
rfoot -24.0891 -0.360689
rtoes 6.72786
lfemur -11.7545 -9.0761 -0.116459
ltibia 24.916
lfoot -10.6103 11.6676
ltoes -27.4933
1734
root -3.19441 17.111 2.39334 2.76042 2.43068 -1.235
lowerback 7.8617 -0.942819 1.38138
upperback 3.03379 -1.23595 -4.54335
thorax -1.39532 -0.592616 -5.38859
lowerneck -25.0297 -13.2166 -17.0915
upperneck 11.6436 -15.1557 15.2867
head 10.3091 -6.31633 5.48719
rclavicle 2.78299e-015 -7.95139e-015
rhumerus 32.9651 21.5982 5.35307
rradius 76.647
rwrist 57.1528
rhand -70.6703 18.0347
rfingers 7.12502
rthumb -42.2371 -6.47539
lclavicle 2.78299e-015 -7.95139e-015
lhumerus -39.7086 11.8009 62.1717
lradius 54.219
lwrist -0.907536
lhand -22.5274 24.6488
lfingers 7.12502
lthumb 3.89946 54.5928
rfemur -22.2541 -7.56815 24.9419
rtibia 47.178
rfoot -23.9367 -0.0138306
rtoes 6.62357
lfemur -11.6713 -8.91869 -0.278144
ltibia 24.7304
lfoot -10.5691 11.9575
ltoes -27.672
